<svg width="50" height="50" viewBox="0 0 50 50" fill="none" xmlns="http://www.w3.org/2000/svg">
    <path d="M10.1563 21.875H2.34375C1.04932 21.875 0 22.9243 0 24.2188V47.6562C0 48.9507 1.04932 50 2.34375 50H10.1563C11.4507 50 12.5 48.9507 12.5 47.6562V24.2188C12.5 22.9243 11.4507 21.875 10.1563 21.875ZM6.25 46.0938C4.95557 46.0938 3.90625 45.0444 3.90625 43.75C3.90625 42.4556 4.95557 41.4062 6.25 41.4062C7.54443 41.4062 8.59375 42.4556 8.59375 43.75C8.59375 45.0444 7.54443 46.0938 6.25 46.0938ZM37.5 7.9543C37.5 12.0965 34.9639 14.4199 34.2503 17.1875H44.1842C47.4456 17.1875 49.9847 19.8971 49.9999 22.8611C50.0081 24.6129 49.263 26.4987 48.1016 27.6655L48.0908 27.6763C49.0514 29.9553 48.8952 33.1486 47.1818 35.4369C48.0296 37.9657 47.1751 41.0721 45.582 42.7374C46.0018 44.456 45.8012 45.9186 44.9816 47.096C42.9885 49.9597 38.0484 50 33.871 50L33.5932 49.9999C28.8776 49.9982 25.0184 48.2813 21.9174 46.9018C20.3591 46.2085 18.3216 45.3503 16.7757 45.3219C16.137 45.3102 15.625 44.789 15.625 44.1502V23.2742C15.625 22.9617 15.7502 22.6618 15.9725 22.4421C19.841 18.6194 21.5045 14.5723 24.6753 11.3961C26.121 9.94766 26.6468 7.75977 27.1551 5.64395C27.5894 3.83721 28.4978 0 30.4688 0C32.8125 0 37.5 0.78125 37.5 7.9543Z" fill="#1E8E1B" />
</svg>